<svg width="27" height="51" viewBox="0 0 27 51" fill="none" xmlns="http://www.w3.org/2000/svg">
<path d="M14.4611 49.8524L25.8829 38.7427C26.1473 38.4858 26.293 38.1428 26.293 37.777C26.293 37.4113 26.1473 37.0683 25.8829 36.8113L25.042 35.9932C24.494 35.4608 23.6034 35.4608 23.0563 35.9932L13.465 45.3223L3.86299 35.9828C3.5986 35.7259 3.24616 35.584 2.87034 35.584C2.49411 35.584 2.14166 35.7259 1.87707 35.9828L1.03634 36.801C0.771952 37.0581 0.626301 37.4009 0.626301 37.7667C0.626301 38.1324 0.771952 38.4754 1.03634 38.7324L12.4686 49.8524C12.7338 50.11 13.0879 50.2515 13.4643 50.2506C13.8422 50.2515 14.1961 50.11 14.4611 49.8524Z" fill="white"/>
<g opacity="0.5">
<path d="M14.4611 32.2684L25.8829 21.1587C26.1473 20.9018 26.293 20.5588 26.293 20.193C26.293 19.8273 26.1473 19.4843 25.8829 19.2273L25.042 18.4092C24.494 17.8768 23.6034 17.8768 23.0563 18.4092L13.465 27.7383L3.86299 18.3988C3.5986 18.1419 3.24616 18 2.87034 18C2.49411 18 2.14166 18.1419 1.87707 18.3988L1.03634 19.217C0.771952 19.4741 0.626301 19.8169 0.626301 20.1827C0.626301 20.5484 0.771952 20.8914 1.03634 21.1484L12.4686 32.2684C12.7338 32.526 13.0879 32.6675 13.4643 32.6667C13.8422 32.6675 14.1961 32.526 14.4611 32.2684Z" fill="white"/>
</g>
<g opacity="0.2">
<path d="M14.4611 14.2684L25.8829 3.15875C26.1473 2.90179 26.293 2.55878 26.293 2.19304C26.293 1.8273 26.1473 1.48428 25.8829 1.22733L25.042 0.409178C24.494 -0.1232 23.6034 -0.1232 23.0563 0.409178L13.465 9.73827L3.86299 0.398826C3.5986 0.141872 3.24616 -1.00741e-06 2.87034 -1.02384e-06C2.49411 -1.04028e-06 2.14166 0.141872 1.87707 0.398825L1.03634 1.21698C0.771952 1.47413 0.626301 1.81694 0.626301 2.18269C0.626301 2.54843 0.771952 2.89144 1.03634 3.14839L12.4686 14.2684C12.7338 14.526 13.0879 14.6675 13.4643 14.6667C13.8422 14.6675 14.1961 14.526 14.4611 14.2684Z" fill="white"/>
</g>
</svg>
