<svg width="15" height="9" viewBox="0 0 15 9" fill="none" xmlns="http://www.w3.org/2000/svg">
<path d="M8.29628 8.28279L14.5263 2.22295C14.6706 2.0828 14.75 1.8957 14.75 1.6962C14.75 1.49671 14.6706 1.30961 14.5263 1.16945L14.0676 0.723188C13.7688 0.4328 13.283 0.4328 12.9845 0.723188L7.7529 5.81178L2.51547 0.717541C2.37126 0.577385 2.17901 0.499999 1.97402 0.499999C1.7688 0.499999 1.57656 0.577384 1.43224 0.717541L0.973657 1.16381C0.829447 1.30407 0.75 1.49106 0.75 1.69056C0.75 1.89005 0.829447 2.07715 0.973657 2.21731L7.20941 8.28279C7.35408 8.42328 7.54723 8.50044 7.75256 8.5C7.95869 8.50044 8.15173 8.42328 8.29628 8.28279Z" fill="black"/>
</svg>
