<svg width="44" height="44" viewBox="0 0 44 44" fill="none" xmlns="http://www.w3.org/2000/svg">
<path d="M22 0C34.1503 0 44 9.84974 44 22C44 34.1503 34.1503 44 22 44C9.84974 44 0 34.1503 0 22C2.57703e-07 9.84974 9.84974 2.5772e-07 22 0ZM21.999 10.2676C18.8144 10.2676 18.4143 10.2819 17.1631 10.3389C15.9141 10.3961 15.0614 10.5937 14.3154 10.8838C13.5437 11.1835 12.8885 11.5839 12.2363 12.2363C11.5838 12.8884 11.1835 13.5432 10.8828 14.3145C10.5919 15.0608 10.3931 15.9145 10.3369 17.1631C10.281 18.4143 10.2666 18.8148 10.2666 22.001C10.2666 25.1876 10.2812 25.5863 10.3379 26.8379C10.3953 28.087 10.5929 28.9395 10.8828 29.6855C11.1827 30.4573 11.5839 31.1125 12.2363 31.7646C12.888 32.417 13.5425 32.8186 14.3135 33.1182C15.06 33.4083 15.9132 33.6069 17.1621 33.6641C18.4135 33.721 18.8138 33.7344 22 33.7344C25.1865 33.7344 25.5854 33.721 26.8369 33.6641C28.0858 33.6069 28.9391 33.4083 29.6855 33.1182C30.4569 32.8185 31.1109 32.4171 31.7627 31.7646C32.4154 31.1125 32.8165 30.457 33.1172 29.6855C33.4056 28.9393 33.6035 28.0863 33.6621 26.8379C33.7183 25.5865 33.7334 25.1874 33.7334 22.001C33.7334 18.8145 33.7183 18.4145 33.6621 17.1631C33.6034 15.9141 33.4056 15.0614 33.1172 14.3154C32.8165 13.5437 32.4154 12.8885 31.7627 12.2363C31.1102 11.5839 30.4577 11.1832 29.6855 10.8838C28.9375 10.5936 28.0841 10.3961 26.835 10.3389C25.5836 10.2819 25.1851 10.2676 21.999 10.2676Z" fill="#81503A"/>
<path d="M20.9492 12.3818C21.2616 12.3813 21.6104 12.3818 22.002 12.3818C25.1346 12.3818 25.506 12.393 26.7432 12.4492C27.8871 12.5015 28.5083 12.6929 28.9219 12.8535C29.4691 13.0661 29.8593 13.3201 30.2695 13.7305C30.6802 14.1411 30.9353 14.5325 31.1484 15.0801C31.309 15.4932 31.4997 16.1148 31.5518 17.2588C31.608 18.4953 31.6201 18.8672 31.6201 21.998C31.6201 25.1294 31.608 25.5014 31.5518 26.7383C31.4994 27.882 31.309 28.5029 31.1484 28.916C30.9358 29.4636 30.6802 29.8532 30.2695 30.2637C29.8589 30.6742 29.4695 30.929 28.9219 31.1416C28.5088 31.3029 27.8871 31.4936 26.7432 31.5459C25.5063 31.6021 25.1346 31.6143 22.002 31.6143C18.8691 31.6143 18.4975 31.6021 17.2607 31.5459C16.1171 31.4931 15.4959 31.3022 15.082 31.1416C14.5345 30.9289 14.1431 30.6743 13.7324 30.2637C13.3218 29.853 13.0676 29.4628 12.8545 28.915C12.6939 28.502 12.5023 27.8811 12.4502 26.7373C12.394 25.5004 12.3828 25.1284 12.3828 21.9951C12.3828 18.8623 12.394 18.4924 12.4502 17.2559C12.5025 16.112 12.6939 15.4908 12.8545 15.0771C13.0672 14.5296 13.3218 14.1382 13.7324 13.7275C14.1431 13.3169 14.5345 13.0628 15.082 12.8496C15.4956 12.6883 16.1169 12.4979 17.2607 12.4453C18.343 12.3964 18.7625 12.3814 20.9492 12.3789V12.3818ZM21.6924 15.9824C18.5087 16.1437 15.9767 18.7763 15.9766 22C15.9766 25.3276 18.6744 28.0243 22.002 28.0244C25.3296 28.0244 28.0264 25.3277 28.0264 22C28.0262 18.6725 25.3295 15.9746 22.002 15.9746L21.6924 15.9824ZM28.2656 14.3301C27.4883 14.3301 26.8574 14.9607 26.8574 15.7383C26.8575 16.5155 27.4883 17.1465 28.2656 17.1465C29.0428 17.1464 29.6737 16.5155 29.6738 15.7383C29.6738 14.961 29.0429 14.3302 28.2656 14.3301Z" fill="#81503A"/>
<path d="M22.001 18.0898C24.1609 18.0898 25.9121 19.8408 25.9121 22.001C25.9121 24.1609 24.1609 25.9121 22.001 25.9121C19.8408 25.9121 18.0898 24.1609 18.0898 22.001C18.0898 19.8408 19.8408 18.0898 22.001 18.0898Z" fill="#81503A"/>
</svg>
