<svg width="108" height="18" viewBox="0 0 108 18" fill="none" xmlns="http://www.w3.org/2000/svg">
<path d="M0.68 2.3H2.465V17H0.68V2.3ZM8.24 2.3H10.445L4.082 9.188L10.76 17H8.555L1.919 9.23L8.24 2.3ZM13.961 12.59L14.591 10.91H21.101L21.731 12.59H13.961ZM17.804 5.618L15.326 11.456L15.158 11.834L12.974 17H10.979L17.804 1.565L24.629 17H22.634L20.492 11.96L20.324 11.54L17.804 5.618ZM37.5473 2.3H39.3323V17.735L28.2023 6.059V17H26.4173V1.565L37.5473 13.241V2.3ZM41.2305 3.98V2.3H50.5755V3.98H46.7955V17H45.0105V3.98H41.2305ZM50.6854 16.16C50.6854 15.838 50.7974 15.565 51.0214 15.341C51.2594 15.117 51.5324 15.005 51.8404 15.005C52.1624 15.005 52.4354 15.117 52.6594 15.341C52.8834 15.565 52.9954 15.838 52.9954 16.16C52.9954 16.468 52.8834 16.741 52.6594 16.979C52.4354 17.203 52.1624 17.315 51.8404 17.315C51.5324 17.315 51.2594 17.203 51.0214 16.979C50.7974 16.741 50.6854 16.468 50.6854 16.16ZM56.9603 14.039C57.1563 14.333 57.3803 14.606 57.6323 14.858C57.8843 15.11 58.1713 15.313 58.4933 15.467C58.8293 15.607 59.1933 15.677 59.5853 15.677C60.0613 15.677 60.4323 15.572 60.6983 15.362C60.9783 15.138 61.1183 14.837 61.1183 14.459C61.1183 14.123 61.0063 13.843 60.7823 13.619C60.5723 13.381 60.2993 13.185 59.9633 13.031C59.6273 12.863 59.2703 12.709 58.8923 12.569C58.4723 12.401 58.0453 12.205 57.6113 11.981C57.1913 11.743 56.8343 11.442 56.5403 11.078C56.2603 10.7 56.1203 10.231 56.1203 9.671C56.1203 9.097 56.2673 8.621 56.5613 8.243C56.8693 7.865 57.2613 7.585 57.7373 7.403C58.2273 7.221 58.7313 7.13 59.2493 7.13C59.7673 7.13 60.2503 7.214 60.6983 7.382C61.1603 7.55 61.5663 7.774 61.9163 8.054C62.2663 8.334 62.5393 8.656 62.7353 9.02L61.3913 9.881C61.1253 9.517 60.7893 9.216 60.3833 8.978C59.9913 8.74 59.5433 8.621 59.0393 8.621C58.6893 8.621 58.3883 8.698 58.1363 8.852C57.8843 9.006 57.7583 9.244 57.7583 9.566C57.7583 9.818 57.8563 10.042 58.0523 10.238C58.2483 10.434 58.5003 10.609 58.8083 10.763C59.1163 10.917 59.4383 11.064 59.7743 11.204C60.3343 11.428 60.8453 11.673 61.3073 11.939C61.7693 12.191 62.1333 12.499 62.3993 12.863C62.6793 13.227 62.8193 13.696 62.8193 14.27C62.8193 15.11 62.5113 15.81 61.8953 16.37C61.2933 16.93 60.4953 17.21 59.5013 17.21C58.8573 17.21 58.2763 17.098 57.7583 16.874C57.2403 16.636 56.7993 16.335 56.4353 15.971C56.0853 15.607 55.8193 15.236 55.6373 14.858L56.9603 14.039ZM63.5611 7.34H68.3911V8.915H63.5611V7.34ZM65.1361 3.98H66.8161V17H65.1361V3.98ZM71.756 13.22C71.756 13.99 71.931 14.585 72.281 15.005C72.631 15.425 73.142 15.635 73.814 15.635C74.304 15.635 74.731 15.537 75.095 15.341C75.473 15.131 75.76 14.844 75.956 14.48C76.166 14.116 76.271 13.696 76.271 13.22V7.34H77.951V17H76.271V15.488C75.949 16.062 75.55 16.496 75.074 16.79C74.598 17.07 74.038 17.21 73.394 17.21C72.386 17.21 71.581 16.867 70.979 16.181C70.377 15.495 70.076 14.578 70.076 13.43V7.34H71.756V13.22ZM88.3542 0.619999H90.0342V17H88.3542V0.619999ZM80.2692 12.17C80.2692 11.12 80.4862 10.224 80.9202 9.482C81.3542 8.726 81.9352 8.145 82.6632 7.739C83.3912 7.333 84.1892 7.13 85.0572 7.13C85.8692 7.13 86.5762 7.333 87.1782 7.739C87.7802 8.145 88.2492 8.726 88.5852 9.482C88.9352 10.224 89.1102 11.12 89.1102 12.17C89.1102 13.206 88.9352 14.102 88.5852 14.858C88.2492 15.614 87.7802 16.195 87.1782 16.601C86.5762 17.007 85.8692 17.21 85.0572 17.21C84.1892 17.21 83.3912 17.007 82.6632 16.601C81.9352 16.195 81.3542 15.614 80.9202 14.858C80.4862 14.102 80.2692 13.206 80.2692 12.17ZM81.9702 12.17C81.9702 12.912 82.1172 13.542 82.4112 14.06C82.7192 14.578 83.1252 14.97 83.6292 15.236C84.1332 15.502 84.6792 15.635 85.2672 15.635C85.7572 15.635 86.2402 15.502 86.7162 15.236C87.1922 14.97 87.5842 14.578 87.8922 14.06C88.2002 13.542 88.3542 12.912 88.3542 12.17C88.3542 11.428 88.2002 10.798 87.8922 10.28C87.5842 9.762 87.1922 9.37 86.7162 9.104C86.2402 8.838 85.7572 8.705 85.2672 8.705C84.6792 8.705 84.1332 8.838 83.6292 9.104C83.1252 9.37 82.7192 9.762 82.4112 10.28C82.1172 10.798 81.9702 11.428 81.9702 12.17ZM93.0857 3.35C93.0857 3.028 93.1977 2.755 93.4217 2.531C93.6597 2.307 93.9327 2.195 94.2407 2.195C94.5627 2.195 94.8357 2.307 95.0597 2.531C95.2837 2.755 95.3957 3.028 95.3957 3.35C95.3957 3.658 95.2837 3.931 95.0597 4.169C94.8357 4.393 94.5627 4.505 94.2407 4.505C93.9327 4.505 93.6597 4.393 93.4217 4.169C93.1977 3.931 93.0857 3.658 93.0857 3.35ZM93.4007 7.34H95.0807V17H93.4007V7.34ZM97.7008 12.17C97.7008 11.19 97.9178 10.322 98.3518 9.566C98.7998 8.81 99.4018 8.215 100.158 7.781C100.914 7.347 101.761 7.13 102.699 7.13C103.651 7.13 104.498 7.347 105.24 7.781C105.996 8.215 106.591 8.81 107.025 9.566C107.473 10.322 107.697 11.19 107.697 12.17C107.697 13.136 107.473 14.004 107.025 14.774C106.591 15.53 105.996 16.125 105.24 16.559C104.498 16.993 103.651 17.21 102.699 17.21C101.761 17.21 100.914 16.993 100.158 16.559C99.4018 16.125 98.7998 15.53 98.3518 14.774C97.9178 14.004 97.7008 13.136 97.7008 12.17ZM99.4018 12.17C99.4018 12.842 99.5418 13.437 99.8218 13.955C100.116 14.473 100.508 14.886 100.998 15.194C101.502 15.488 102.069 15.635 102.699 15.635C103.329 15.635 103.889 15.488 104.379 15.194C104.883 14.886 105.275 14.473 105.555 13.955C105.849 13.437 105.996 12.842 105.996 12.17C105.996 11.498 105.849 10.903 105.555 10.385C105.275 9.853 104.883 9.44 104.379 9.146C103.889 8.852 103.329 8.705 102.699 8.705C102.069 8.705 101.502 8.852 100.998 9.146C100.508 9.44 100.116 9.853 99.8218 10.385C99.5418 10.903 99.4018 11.498 99.4018 12.17Z" fill="black"/>
</svg>
