<svg width="129" height="44" viewBox="0 0 129 44" fill="none" xmlns="http://www.w3.org/2000/svg">
<g clip-path="url(#clip0_777_711)">
<path d="M17.3307 25.6998V43.6411H15.5824V27.1861H15.4278L9.20541 39.079H8.4085L1.33738 28.5958H1.18284L1.74835 43.6411H0L0.643221 25.3409H1.1578L9.25721 37.3362H9.41175L15.4796 25.6998H17.3307Z" fill="#DEC1A3"/>
<path d="M22.7303 34.67C22.7303 33.3541 22.966 32.1286 23.4374 30.9917C23.9088 29.8557 24.5685 28.8643 25.4172 28.0183C26.2659 27.1723 27.2596 26.5148 28.4002 26.0449C29.5398 25.575 30.7702 25.3401 32.0903 25.3401C33.4104 25.3401 34.6399 25.575 35.7804 26.0449C36.92 26.5148 37.9147 27.1723 38.7634 28.0183C39.6121 28.8643 40.2717 29.8557 40.7431 30.9917C41.2145 32.1286 41.4502 33.3541 41.4502 34.67C41.4502 35.9859 41.2145 37.2123 40.7431 38.3483C40.2717 39.4852 39.6121 40.4758 38.7634 41.3218C37.9147 42.1677 36.92 42.8253 35.7804 43.2952C34.6399 43.7651 33.4104 44 32.0903 44C30.7702 44 29.5407 43.7651 28.4002 43.2952C27.2596 42.8253 26.2659 42.1677 25.4172 41.3218C24.5685 40.4758 23.9088 39.4852 23.4374 38.3483C22.966 37.2123 22.7303 35.9859 22.7303 34.67ZM24.6842 34.67C24.6842 36.4128 24.9924 37.9378 25.6097 39.2451C26.227 40.5524 27.0921 41.5688 28.2068 42.2951C29.3205 43.0215 30.6148 43.3847 32.0894 43.3847C33.5641 43.3847 34.8574 43.0215 35.9721 42.2951C37.0858 41.5688 37.9518 40.5481 38.5691 39.2322C39.1864 37.9163 39.4947 36.3956 39.4947 34.67C39.4947 32.9445 39.1864 31.4281 38.5691 30.1208C37.9518 28.8135 37.0858 27.7928 35.9721 27.0579C34.8574 26.3237 33.5632 25.9554 32.0894 25.9554C30.6156 25.9554 29.3249 26.3186 28.2197 27.0449C27.1137 27.7713 26.2486 28.7877 25.6227 30.095C24.9967 31.4023 24.6842 32.9273 24.6842 34.67Z" fill="#DEC1A3"/>
<path d="M46.8481 43.6411V25.6998H50.4225C52.2736 25.6998 53.7137 26.0845 54.742 26.853C55.7703 27.6216 56.2849 28.6904 56.2849 30.0571C56.2849 31.0658 55.9844 31.9238 55.3852 32.6329C54.7852 33.3421 53.9451 33.8249 52.865 34.0814V34.2354C54.3388 34.4239 55.4914 34.9317 56.3237 35.7604C57.1552 36.5892 57.5705 37.6357 57.5705 38.9C57.5705 40.3863 56.9963 41.549 55.848 42.3855C54.6997 43.2229 53.0878 43.6411 51.0139 43.6411H46.8481ZM50.4484 26.3143H48.5973V34.003H50.4234C53.1318 34.003 54.4856 32.7216 54.4856 30.1587C54.4856 27.5957 53.1396 26.3143 50.4484 26.3143ZM51.0139 34.6193H48.5973V43.0258H51.0139C54.1506 43.0258 55.7194 41.6247 55.7194 38.8225C55.7194 36.0203 54.1506 34.6193 51.0139 34.6193Z" fill="#DEC1A3"/>
<path d="M62.7128 43.6411V25.6998H64.4612V43.6411H62.7128Z" fill="#DEC1A3"/>
<path d="M68.4724 43.6411L75.389 25.6998H76.9828L83.8994 43.6411H82.0224L78.8339 35.2346H72.9974L70.3494 43.6411H68.4724ZM75.5695 27.032L73.1779 34.6184H78.6034L75.7231 27.032H75.5686H75.5695Z" fill="#DEC1A3"/>
<path d="M88.0652 25.6998H91.511C93.3275 25.6998 94.7383 26.0802 95.7407 26.8401C96.7431 27.6009 97.2447 28.6646 97.2447 30.0313C97.2447 31.0907 96.9322 31.9711 96.3062 32.6708C95.6803 33.3714 94.7763 33.8413 93.5935 34.0805V34.2346C94.7245 34.4566 95.6509 34.9867 96.3701 35.8233C97.0902 36.6606 97.6298 37.6942 97.9898 38.9249C98.3153 40.0523 98.6365 40.9284 98.9542 41.5524C99.2711 42.1763 99.6225 42.6247 100.008 42.8975C100.394 43.1712 100.853 43.3674 101.384 43.4871V43.6411H100.33C99.575 43.6411 98.9542 43.5043 98.4655 43.2315C97.9769 42.9586 97.5616 42.4974 97.2188 41.8476C96.8761 41.1987 96.5506 40.3011 96.2415 39.1564C95.7442 37.3965 95.0845 36.1494 94.2617 35.4145C93.4389 34.6804 92.4365 34.312 91.2537 34.312H91.0992V33.8507H91.2537C94.0131 33.8507 95.3936 32.5865 95.3936 30.0571C95.3936 27.5278 94.0994 26.3151 91.511 26.3151H89.8136V43.6411H88.0652V25.6998Z" fill="#DEC1A3"/>
<path d="M104.573 25.6998H108.019C109.835 25.6998 111.246 26.0802 112.249 26.8401C113.251 27.6009 113.753 28.6646 113.753 30.0313C113.753 31.0907 113.44 31.9711 112.814 32.6708C112.188 33.3714 111.284 33.8413 110.101 34.0805V34.2346C111.232 34.4566 112.159 34.9867 112.878 35.8233C113.598 36.6606 114.138 37.6942 114.498 38.9249C114.823 40.0523 115.144 40.9284 115.462 41.5524C115.779 42.1763 116.13 42.6247 116.516 42.8975C116.902 43.1712 117.361 43.3674 117.892 43.4871V43.6411H116.838C116.083 43.6411 115.462 43.5043 114.973 43.2315C114.485 42.9586 114.069 42.4974 113.727 41.8476C113.384 41.1987 113.058 40.3011 112.749 39.1564C112.252 37.3965 111.592 36.1494 110.77 35.4145C109.947 34.6804 108.944 34.312 107.762 34.312H107.607V33.8507H107.762C110.521 33.8507 111.902 32.5865 111.902 30.0571C111.902 27.5278 110.607 26.3151 108.019 26.3151H106.321V43.6411H104.573V25.6998Z" fill="#DEC1A3"/>
<path d="M121.08 43.6411V25.6998H128.922V26.9554L124.422 26.3659C123.634 26.2635 123.102 26.2119 122.829 26.2119V34.0289C123.051 34.0289 123.582 34.003 124.422 33.9523L128.639 33.6958V34.8749L124.422 34.6184C123.582 34.5668 123.05 34.5418 122.829 34.5418V43.1282C123.119 43.1282 123.66 43.0766 124.448 42.9741L128.999 42.3846V43.6403H121.079L121.08 43.6411Z" fill="#DEC1A3"/>
<path d="M60.0328 0.749599H57.2752V16.7184H55.5432V0.749599H54.199V0H61.0128C61.3849 0 61.7458 0.0352854 62.0946 0.104996C62.4443 0.174706 62.7819 0.279701 63.1091 0.419982M60.8306 9.63119C60.6787 9.35837 60.4663 9.14235 60.1926 8.984C59.9189 8.82479 59.6305 8.74561 59.3266 8.74561H58.0281V7.99601H59.8507C60.3825 7.99601 60.8798 8.10961 61.3435 8.33681" fill="#DEC1A3"/>
<path d="M72.2152 15.9688H73.9014V16.7184H71.6911C71.0531 16.7184 70.4643 16.5557 69.9246 16.2295C69.385 15.9042 68.9637 15.461 68.6598 14.9008L65.8572 9.63118C65.7053 9.35837 65.4929 9.14235 65.2192 8.984C64.9455 8.82478 64.6571 8.74561 64.3532 8.74561H63.0547V7.99601H64.8773C65.4091 7.99601 65.9064 8.10961 66.3701 8.33681C66.8337 8.56402 67.2248 8.8747 67.5434 9.268C68.1961 8.85921 68.7168 8.31358 69.1044 7.63283C69.4921 6.95122 69.6855 6.20162 69.6855 5.38403C69.6855 4.74803 69.5637 4.14646 69.3211 3.57845C69.0777 3.01044 68.7478 2.51903 68.33 2.10249C67.9121 1.68595 67.4217 1.3572 66.8605 1.1145C66.2984 0.872667 65.6984 0.75132 65.0603 0.75132H62.3027V16.7201H60.5707V0.749599H59.2264V0H66.0403C66.7845 0 67.483 0.140281 68.1366 0.419982C68.7902 0.700544 69.3591 1.0861 69.8461 1.57837C70.3322 2.07065 70.7155 2.6421 70.997 3.29359C71.2784 3.94508 71.4192 4.64132 71.4192 5.38317C71.4192 6.48907 71.1152 7.4805 70.5074 8.35919C69.8996 9.23788 69.1174 9.88937 68.1599 10.3128L70.712 15.06C70.864 15.3474 71.0729 15.5712 71.3389 15.7304C71.6048 15.8896 71.8975 15.9688 72.2161 15.9688H72.2152Z" fill="#DEC1A3"/>
</g>
<defs>
<clipPath id="clip0_777_711">
<rect width="129" height="44" fill="white"/>
</clipPath>
</defs>
</svg>
