<svg width="156" height="134" viewBox="0 0 156 134" fill="none" xmlns="http://www.w3.org/2000/svg">
<g clip-path="url(#clip0_859_3711)">
<mask id="mask0_859_3711" style="mask-type:luminance" maskUnits="userSpaceOnUse" x="0" y="0" width="156" height="134">
<path d="M156 0H0V134H156V0Z" fill="white"/>
</mask>
<g mask="url(#mask0_859_3711)">
<path fill-rule="evenodd" clip-rule="evenodd" d="M68.5625 123.703C68.8247 125.441 69.349 126.243 70.2667 126.243C70.66 126.243 71.1843 125.976 71.9708 125.575C72.7575 125.174 73.544 124.906 74.0683 124.906C75.3793 124.906 76.0347 125.441 75.7725 126.645C75.5104 127.848 75.5104 128.784 75.5104 129.587C75.5104 131.593 75.7725 132.395 76.2969 131.86C76.8214 131.325 77.6079 131.058 78.6565 131.058C79.05 131.058 79.5743 131.058 79.9675 131.058C80.3608 131.058 80.754 131.994 81.1474 134C81.2785 134 81.4096 134 81.6718 134C83.5071 134 87.7019 128.25 89.144 125.575C95.5675 113.806 103.171 102.84 110.905 92.0081C113.265 88.7983 115.494 85.5888 117.853 82.3791C118.115 82.2455 118.64 81.8444 119.295 81.1756C119.951 80.507 120.606 79.7046 121.393 78.9022C122.179 78.0999 122.835 77.4311 123.621 76.7625C124.408 76.0937 125.063 75.8263 125.719 75.8263C126.636 75.8263 127.161 75.9601 127.292 76.0937C127.292 76.2275 127.423 75.6925 127.423 74.6228C127.423 73.4192 128.603 72.483 129.651 70.6107C131.094 68.2036 131.094 66.5988 132.142 67.1338C133.191 67.6686 133.846 68.0698 133.846 70.0759C133.846 72.0818 132.142 73.2854 132.142 75.4251C132.142 76.7625 132.273 77.4311 132.273 77.6987C132.405 78.3673 132.536 79.0358 132.667 79.7046C132.667 79.5708 132.798 79.437 133.191 79.3034C133.584 79.1696 133.846 79.1696 133.978 79.1696C135.289 79.1696 135.551 79.5708 135.026 80.507C134.502 81.3094 134.24 82.1117 134.24 82.6467C134.24 83.0479 134.502 83.8503 135.026 84.9201C135.551 85.99 135.813 86.7924 135.813 87.461C135.813 89.0659 136.337 90.2695 137.386 91.0719C138.435 91.8743 138.959 93.0778 138.959 94.6826C138.959 95.4849 138.828 96.5549 138.435 98.1597C138.041 99.7644 137.91 100.968 137.91 101.77C137.91 102.172 137.779 102.707 138.173 103.375C140.401 107.254 133.322 108.591 141.319 114.743C141.843 115.144 142.368 115.411 142.892 115.812C143.416 116.214 143.81 116.347 144.203 116.347C144.727 116.347 145.776 115.812 147.349 114.609C148.922 113.405 150.102 112.87 150.889 112.87C151.413 112.87 152.199 113.271 152.986 113.806C153.904 114.475 154.297 115.01 154.297 115.545C155.477 115.144 156.001 114.208 155.739 112.737C155.608 111.399 155.477 110.329 155.477 109.527C155.477 109.126 155.608 108.858 155.87 108.591C156.132 108.323 156.132 108.056 156.132 107.922C156.132 107.12 156.132 106.451 156.132 105.649C156.132 105.381 156.132 105.114 156.263 104.846C156.394 104.579 156.394 104.311 156.394 104.044C156.394 103.643 156.263 102.84 156.263 101.369C156.132 99.8982 156.132 98.2935 156.001 96.2875C155.87 94.4152 155.87 92.2754 155.739 90.1357C155.608 87.8624 155.608 85.99 155.608 84.2515C155.608 83.4491 155.477 82.2455 155.215 80.507C155.084 79.437 154.952 79.4372 154.952 79.4372C154.952 79.4372 154.952 79.3034 154.952 79.0358C154.952 77.8323 154.821 77.4311 154.559 77.8323C154.297 78.2335 153.773 76.0937 153.248 76.0937C153.117 76.0937 153.117 76.0937 153.117 75.9601C153.117 75.9601 153.117 75.8263 152.986 75.8263C152.855 75.8263 152.724 75.8263 152.593 75.8263C152.331 75.8263 152.068 75.4251 151.806 74.489C151.806 74.2216 152.199 73.6866 153.117 72.8842C153.904 72.0818 154.559 71.4133 154.428 70.7445C154.166 69.6747 155.87 58.0399 154.166 58.8422C153.641 59.1098 153.51 59.511 153.248 59.2434L153.117 59.1098C152.986 59.1098 152.855 59.1098 152.593 59.1098C151.806 58.8422 151.282 58.3075 151.282 57.3713C151.282 56.5689 151.413 55.9001 151.806 55.4989C152.199 55.0978 152.593 54.8304 153.117 54.563C153.641 54.2954 154.035 54.028 154.428 53.7604C154.821 53.3592 154.952 52.6906 154.952 51.7545C154.952 50.1497 154.428 48.8123 153.379 47.6088C152.33 46.4052 151.806 44.6667 151.806 42.1257C151.806 41.7246 151.806 41.1896 151.937 40.6548C152.068 40.1198 152.068 39.3174 152.199 38.6486C152.33 37.5789 152.462 36.6427 152.724 35.5729C151.675 35.3053 150.495 34.9042 149.446 34.6368C149.709 34.503 149.84 34.2356 149.971 33.7006C150.102 33.1656 150.233 32.7644 150.233 32.497C150.233 31.6947 149.84 30.7585 149.184 29.5549C148.267 27.8164 147.349 26.479 150.102 26.2116C151.413 26.0778 151.413 27.549 151.413 29.2873C151.413 31.0259 152.199 31.2935 152.593 31.2935C152.986 31.4271 152.855 30.8923 153.117 29.6887C155.346 21.531 153.641 19.2575 153.641 17.1178C153.641 16.7166 153.641 16.3154 153.641 15.7804C155.87 11.2335 152.199 3.20958 149.578 5.88422C148.529 6.82036 149.053 4.14572 148.267 4.68064C147.349 5.3493 139.877 1.20359 138.828 1.20359C138.041 1.20359 137.386 0.936128 136.862 0.53493C135.944 0.267466 135.42 0 135.026 0C134.895 0 134.764 0 134.633 0C134.764 0.267466 134.895 0.668662 135.157 1.47106C135.289 1.60479 135.289 1.87226 135.289 2.00599C135.289 2.13972 135.289 2.13972 135.289 2.13972C135.289 2.13972 135.289 2.27345 135.289 2.40719C135.289 2.80838 134.895 3.07585 134.371 3.20958C133.322 3.20958 132.273 4.27943 130.569 4.81438C126.112 6.1517 131.487 3.20958 120.082 5.08183C119.426 5.21556 118.246 5.21556 116.411 5.48304C114.576 5.75051 112.741 5.88422 110.774 5.88422C110.643 5.88422 110.643 5.88422 110.512 5.88422C109.332 5.88422 107.759 6.1517 105.53 6.68662C103.302 7.22156 101.598 7.48902 100.549 7.48902C98.5826 7.48902 97.0096 7.75649 95.8297 8.15768C94.65 8.69262 93.7322 9.09381 93.0768 9.76247C92.2903 10.2974 91.6347 10.8323 90.8482 11.3673C90.0617 11.9022 89.144 12.1697 87.8332 12.1697C86.5222 12.1697 85.4733 12.9721 84.4247 14.4431C83.5071 16.0479 83.7693 18.8563 81.9339 19.6587C75.7725 22.1995 68.8247 22.0659 71.9708 31.0259C72.2332 31.6947 72.2332 33.2994 72.6264 33.8344C73.1507 34.3692 73.8061 35.038 74.3304 35.5729C77.2146 38.515 78.9189 39.5848 78.7876 40.7884C78.6565 41.1896 78.1322 41.4572 78.1322 42.2595C78.1322 43.0619 78.5254 43.8643 79.181 44.5329C86.9154 51.7545 86.7843 46.9402 94.2565 55.3653C95.1743 56.4351 95.9608 57.1037 96.4851 57.1037C96.8785 57.3713 97.2718 57.9063 98.0583 58.4411C98.8447 58.976 99.2382 59.511 99.2382 59.7784C99.2382 61.2496 102.253 62.3193 103.433 62.7205C104.613 63.1217 105.793 63.5229 107.104 63.7905C108.284 64.0579 109.463 64.1917 110.381 64.1917C110.512 64.1917 110.512 64.1917 110.643 64.1917C110.905 64.1917 111.43 64.0579 112.216 63.9241C113.003 63.7905 113.527 63.7905 113.658 63.7905C114.183 64.1917 114.576 64.5929 115.1 65.1277C115.1 65.9302 114.707 66.5988 113.92 67.1338C113.134 67.6686 112.347 68.2036 111.43 68.7385C111.036 69.0059 110.774 69.1397 110.381 69.2735C109.857 69.5409 109.463 69.8083 109.07 70.0759C108.284 70.4771 107.89 70.8783 107.89 71.2795C107.89 71.5469 107.89 72.483 107.759 73.954C107.628 75.4251 107.366 76.8963 106.841 78.2335C106.317 79.7046 105.662 80.7744 105.006 81.4432C104.22 82.2455 103.04 81.978 101.598 80.9082C101.336 81.5768 100.811 82.3793 99.7625 83.4491C98.7136 84.3853 97.5339 85.5888 96.2229 86.7924C94.9121 87.996 93.7322 89.1995 92.6835 90.4031C91.6347 91.6069 90.9793 92.6766 90.9793 93.479C89.7994 94.6826 88.6196 95.8861 87.4397 97.0899C87.7019 97.2235 87.9642 97.4911 88.0953 97.6247C87.7019 97.3573 86.9154 97.7585 85.9978 98.8282C84.949 100.032 84.0314 101.236 83.2447 102.305C82.4582 103.509 82.065 104.044 81.9339 104.311C81.9339 105.247 81.9339 106.184 81.9339 107.12C80.6229 107.253 79.4432 107.387 78.1322 107.387C78.0011 108.323 77.4768 109.527 76.4279 110.864C75.3793 112.202 74.3304 113.539 73.1507 115.01C71.9708 116.481 70.7911 118.086 69.7422 119.557C68.9557 121.028 68.5625 122.365 68.5625 123.703ZM110.643 17.6527C111.168 17.7864 111.43 17.7864 111.692 17.7864C112.085 17.7864 112.872 17.6527 113.789 17.2515C114.707 16.984 115.756 16.5828 116.542 16.1816C117.46 15.7804 118.246 15.513 119.033 15.1118C119.82 14.7106 120.213 14.5768 120.344 14.5768C121.13 19.525 121.655 22.8683 121.655 24.4731C121.655 25.6766 121.655 27.014 121.655 28.2176C121.655 29.8223 121.786 31.5609 121.917 33.4332C122.048 35.3053 122.31 37.0439 122.704 38.9162C123.097 40.7884 123.752 42.2595 124.67 43.4631C125.325 47.475 126.768 35.8403 128.341 44.8005C128.603 46.004 128.734 46.539 128.996 46.539C129.258 46.539 129.389 46.539 129.651 46.539C129.914 47.8762 130.045 49.3473 130.307 50.6847C129.783 50.6847 129.127 50.9521 128.603 51.4871C127.423 52.4232 126.112 52.4232 124.67 52.4232C122.31 52.4232 119.82 49.8823 117.067 44.8005C116.805 45.7364 116.542 46.8064 116.411 47.8762C116.28 48.9461 116.018 49.4811 115.494 49.4811C115.362 49.4811 115.231 49.4811 114.969 49.4811C114.838 49.4811 114.576 49.4811 114.183 49.3473C113.658 49.2135 113.396 49.0799 113.396 48.9461C113.396 47.7426 113.527 46.539 113.527 45.3352C113.658 43.4631 113.003 41.8584 111.561 40.9222C111.299 40.7884 111.168 40.6548 110.905 40.521C109.725 39.8522 108.677 39.451 107.628 39.451C107.366 38.3813 106.317 37.1777 104.482 35.7065C102.778 34.2356 100.811 32.7644 98.976 31.1597C97.0096 29.5549 95.3054 27.9502 93.7322 26.3452C92.159 24.7405 91.3725 23.2695 91.3725 21.9321C92.0279 21.531 93.2079 21.1298 95.0432 20.5948C96.8785 20.1936 98.7136 19.7924 100.549 19.2575C102.515 18.8563 104.22 18.4551 105.662 17.9202C107.235 17.519 108.021 16.984 108.021 16.4491C108.021 15.3792 107.497 14.1757 107.628 14.1757C107.759 14.1757 108.152 14.8443 109.594 16.8503C109.725 17.519 110.119 17.6527 110.643 17.6527Z" fill="#FFCB05"/>
<path fill-rule="evenodd" clip-rule="evenodd" d="M81.5396 68.7353H82.5882C85.6033 68.7353 86.6521 70.0727 86.6521 71.9449C86.6521 73.6834 85.21 75.1546 82.7193 75.1546H81.6707H76.2957V64.0547H77.8689V68.7353H81.5396ZM2.62185 64.0547L7.73446 73.0148L12.8471 64.0547H15.4689V75.1546H13.8958V65.2583L8.521 75.1546H7.079L1.57311 65.392V75.1546H0V64.0547H2.62185ZM21.3682 68.7353H28.7093V70.2063H21.3682V73.8172H28.9714V75.2882H19.795V64.1885H28.9714V65.5258H21.3682V68.7353ZM38.1479 68.7353H39.1967C42.0807 68.7353 43.1293 70.0727 43.1293 71.9449C43.1293 73.6834 41.6875 75.1546 39.1967 75.1546H38.1479H32.7732V64.0547H38.1479H42.3429V65.5258H38.1479H34.3461V68.7353H38.1479ZM38.1479 73.6834H39.1967C41.0318 73.6834 41.9496 73.1484 41.8185 71.9449C41.8185 70.6075 41.0318 70.0727 38.9344 70.0727H38.1479H34.3461V73.6834H38.1479ZM49.0286 68.7353H56.3697V70.2063H49.0286V73.8172H56.6319V75.2882H47.4554V64.1885H56.7629V65.5258H49.1597V68.7353H49.0286ZM71.7075 75.1546H70.1344V65.5258H63.1865V70.8751C63.1865 72.346 63.0554 73.416 62.6622 74.0846C62.2689 74.7534 61.6135 75.1546 60.5647 75.1546H59.516V73.6834H59.9093C60.5647 73.6834 60.9579 73.5496 61.2201 73.2822C61.4824 73.0148 61.6135 72.2124 61.6135 71.1425V64.1885H71.7075V75.1546ZM81.5396 73.6834H82.4571C84.2925 73.6834 85.21 73.1484 85.21 71.9449C85.21 70.6075 84.4236 70.0727 82.195 70.0727H81.5396H77.7378V73.6834H81.5396Z" fill="black"/>
<path fill-rule="evenodd" clip-rule="evenodd" d="M19.4034 82.643C20.4521 83.3116 21.2386 83.9804 22.1564 84.9164C23.205 83.4454 25.4336 82.3754 27.0068 81.8407C28.5799 81.3057 30.0218 81.3057 31.7261 81.4395C33.6925 81.5731 35.5278 81.9743 37.232 83.178C38.6739 84.114 39.5917 85.184 40.3782 86.9225C41.1647 88.5273 41.427 90.2658 41.427 92.0044C41.427 96.9524 41.427 102.034 41.427 106.982C38.9361 106.982 36.5764 106.982 34.0857 106.982C34.0857 102.435 34.0857 97.7548 34.0857 93.2079C34.0857 92.6729 34.0857 92.2717 33.9546 91.7368C33.8235 91.0682 33.6925 90.2658 33.4303 89.597C33.1681 89.1958 32.906 88.7947 32.5125 88.5273C31.595 87.8585 30.4153 87.7249 29.3664 87.8585C27.7932 88.1261 27.0068 88.5273 25.827 89.7308C25.1714 90.3994 24.7782 91.3356 24.6471 92.2717C24.6471 92.6729 24.6471 93.0741 24.516 93.3415C24.516 97.8886 24.516 102.302 24.516 106.849C22.0253 106.849 19.6656 106.849 17.1748 106.849C17.1748 102.302 17.1748 97.621 17.1748 93.0741C17.1748 92.4055 17.1748 91.7368 17.0437 91.202C16.9126 90.3994 16.6505 89.597 16.1261 88.9284C15.4706 88.1261 14.1597 87.7249 13.111 87.7249C11.9311 87.7249 10.6202 88.1261 9.70257 88.7947C8.78492 89.4634 7.99836 90.667 7.73618 91.7368C7.60508 92.4055 7.60508 92.9403 7.60508 93.6091C7.60508 98.0222 7.60508 102.435 7.60508 106.849C5.11432 106.849 2.62357 106.849 0.132812 106.849C0.132812 98.5572 0.132812 90.2658 0.132812 81.9743C2.62357 81.9743 5.11432 81.9743 7.60508 81.9743C7.60508 82.3754 7.60508 82.7768 7.60508 83.178C8.26054 82.9104 8.78492 82.3754 9.44036 82.2418C11.0135 81.8407 12.3244 81.4395 13.8975 81.5731C15.6017 81.3057 17.8303 81.7069 19.4034 82.643ZM54.9295 89.0622C54.1428 89.7308 53.3564 90.667 53.0942 91.7368C53.0942 93.3415 53.0942 94.9465 53.0942 96.685C53.3564 97.621 53.7496 98.2898 54.2739 98.9583C55.716 100.563 57.4203 100.964 59.3867 100.831C61.4842 100.697 63.1882 100.43 64.4992 98.2898C65.5479 96.5512 65.6789 93.8765 65.1546 92.0044C64.3681 89.1958 62.1396 87.7249 59.3867 87.7249C57.8135 87.7249 56.1093 87.9923 54.9295 89.0622ZM55.5849 106.581C54.6672 106.314 53.7496 106.046 52.9631 105.511C52.9631 108.587 52.9631 111.663 52.9631 114.739C50.4724 114.739 47.9815 114.739 45.4907 114.739C45.4907 103.773 45.4907 92.8067 45.4907 81.7069C47.9815 81.7069 50.4724 81.7069 52.9631 81.7069C52.9631 82.108 52.9631 82.5092 52.9631 82.9104C55.1917 81.7069 57.6824 81.1719 60.1732 81.1719C62.9261 81.1719 65.5479 81.8407 67.9075 83.4454C70.9228 85.5851 72.7581 89.4634 72.8892 93.2079C73.0203 96.0162 72.4957 98.8246 71.0538 101.232C68.9564 104.709 65.6789 106.447 61.7463 106.982C59.6488 107.383 57.6824 107.25 55.5849 106.581ZM84.2942 106.715C81.4102 105.913 79.0504 104.441 77.8706 101.499C77.3463 100.162 76.9529 98.9583 76.8218 97.7548C76.6907 96.9524 76.6907 96.2836 76.6907 95.3477C76.6907 90.8006 76.6907 86.2537 76.6907 81.7069C79.1815 81.7069 81.5413 81.7069 84.032 81.7069C84.032 86.2537 84.032 90.8006 84.032 95.4812C84.032 96.4174 84.1631 97.3536 84.5564 98.2898C84.9496 99.3595 85.605 100.162 86.7849 100.563C87.5714 100.831 88.3581 100.831 89.1446 100.831C90.1932 100.831 91.111 100.563 92.0286 100.162C93.2085 99.6271 94.2571 98.691 94.6504 97.4874C94.9125 96.8186 95.0438 96.2836 95.0438 95.615C95.0438 95.3477 95.0438 95.2139 95.0438 94.9465C95.0438 90.5332 95.0438 86.1201 95.0438 81.7069C97.5345 81.7069 100.025 81.7069 102.516 81.7069C102.516 89.9982 102.516 98.2898 102.516 106.715C100.025 106.715 97.5345 106.715 95.0438 106.715C95.0438 106.18 95.0438 105.779 95.0438 105.244C94.7815 105.378 94.6504 105.511 94.3882 105.645C93.3396 106.18 92.2907 106.581 91.2421 106.849C89.1446 107.25 86.3917 107.25 84.2942 106.715Z" fill="#ED1C24"/>
</g>
</g>
<defs>
<clipPath id="clip0_859_3711">
<rect width="156" height="134" fill="white"/>
</clipPath>
</defs>
</svg>
