<svg width="44" height="44" viewBox="0 0 44 44" fill="none" xmlns="http://www.w3.org/2000/svg">
<path d="M22 0C34.1503 0 44 9.84974 44 22C44 34.1503 34.1503 44 22 44C9.84974 44 0 34.1503 0 22C0 9.84974 9.84974 0 22 0ZM32.9521 14.3975C32.7917 13.0482 31.1556 13.345 30.2451 13.6484C25.5656 15.4291 20.9328 17.3417 16.3184 19.2881C13.9713 20.3279 11.4799 21.3632 9.1709 22.5547L8.19336 23.0752C6.94032 23.9926 9.0692 24.5995 10.5225 25.2012C12.1433 25.6992 14.0337 26.4619 15.6553 25.5693C18.8299 23.7457 21.7673 21.5437 24.7783 19.4688C25.3264 19.1181 26.9881 17.9743 26.4258 19.332C24.3413 21.6116 22.008 23.4526 19.8086 25.6201C19.0374 26.2468 18.237 27.5073 19.1006 28.3848C21.7368 30.2303 24.4274 32.0167 27.0977 33.8203C28.2088 34.7075 29.9461 33.9898 30.1904 32.6035C30.8995 28.4417 31.6268 24.2801 32.2559 20.1045C32.5037 18.2059 32.8643 16.3072 32.9521 14.3975Z" fill="#81503A"/>
</svg>
