<svg width="44" height="44" viewBox="0 0 44 44" fill="none" xmlns="http://www.w3.org/2000/svg">
<path d="M22 0C34.1503 0 44 9.84974 44 22C44 34.1503 34.1503 44 22 44C9.84974 44 0 34.1503 0 22C2.57703e-07 9.84974 9.84974 2.5772e-07 22 0ZM22.7246 8.06641C15.5141 8.06656 9.64545 13.9347 9.64258 21.1475C9.6416 23.453 10.2439 25.7036 11.3887 27.6875L9.5332 34.4668L16.4678 32.6475C18.3785 33.6897 20.5303 34.2385 22.7197 34.2393H22.7246C29.9372 34.2363 35.8035 28.3692 35.8066 21.1582C35.808 17.6628 34.4484 14.3759 31.9785 11.9033C29.5087 9.4306 26.2241 8.06792 22.7246 8.06641Z" fill="#81503A"/>
<path d="M22.7295 10.2754C25.6335 10.2765 28.3632 11.4088 30.416 13.4639C32.4688 15.5191 33.5987 18.251 33.5977 21.1562C33.5953 27.1517 28.7176 32.0293 22.7246 32.0293H22.7207C20.7696 32.0285 18.8559 31.5043 17.1865 30.5137L16.7891 30.2783L12.6738 31.3574L13.7725 27.3457L13.5137 26.9346C12.4253 25.2034 11.8507 23.202 11.8516 21.1475C11.854 15.1526 16.732 10.2754 22.7295 10.2754ZM18.0938 15.1055C17.8758 15.1055 17.5213 15.1874 17.2217 15.5146C16.9219 15.842 16.0782 16.633 16.0781 18.2412C16.0781 19.8501 17.2496 21.4049 17.4131 21.623C17.5778 21.8433 19.7191 25.1432 22.9971 26.5586C23.7768 26.8953 24.3856 27.0965 24.8604 27.2471C25.6433 27.4959 26.3559 27.4611 26.9189 27.377C27.547 27.2831 28.8525 26.5858 29.125 25.8223C29.3972 25.0586 29.3981 24.4039 29.3164 24.2676C29.2347 24.1313 29.0162 24.0494 28.6895 23.8857C28.3621 23.7219 26.7557 22.9314 26.4561 22.8223C26.1565 22.7132 25.9385 22.6593 25.7207 22.9863C25.5029 23.3134 24.8765 24.0491 24.6855 24.2676C24.4949 24.4857 24.3043 24.5133 23.9775 24.3496C23.6507 24.186 22.5972 23.8412 21.3486 22.7275C20.3769 21.8608 19.7209 20.7901 19.5303 20.4629C19.3397 20.1357 19.5102 19.9589 19.6738 19.7959C19.8208 19.6494 20.0007 19.4144 20.1641 19.2236C20.3275 19.0328 20.3822 18.8957 20.4912 18.6777C20.5998 18.4598 20.5455 18.2689 20.4639 18.1055C20.3822 17.9419 19.7286 16.3335 19.4561 15.6787C19.1909 15.0418 18.9213 15.1271 18.7207 15.1172C18.5303 15.1076 18.3116 15.1055 18.0938 15.1055Z" fill="#81503A"/>
</svg>
